<?xml version="1.0" encoding="iso-8859-1"?>
<!-- Generator: Adobe Illustrator 19.0.0, SVG Export Plug-In . SVG Version: 6.00 Build 0)  -->
<svg version="1.1" id="Capa_1" xmlns="http://www.w3.org/2000/svg" xmlns:xlink="http://www.w3.org/1999/xlink" x="0px" y="0px"
	 viewBox="0 0 512 512" style="enable-background:new 0 0 512 512;" xml:space="preserve">
<g>
	<path style="fill:#28384C;" d="M476.654,494.345H35.346c-9.772,0-17.69-7.918-17.69-17.69V26.518c0-9.772,7.918-17.69,17.69-17.69
		h441.309c9.772,0,17.69,7.918,17.69,17.69v450.136C494.345,486.426,486.426,494.345,476.654,494.345z"/>
	<rect x="167.724" y="176.552" style="fill:#28384C;" width="176.552" height="158.897"/>
	<path style="fill:#28384C;" d="M176.552,176.552H0V17.69C0,7.918,7.918,0,17.69,0h158.861V176.552z"/>
	<path style="fill:#28384C;" d="M512,176.552H335.448V0H494.31C504.082,0,512,7.918,512,17.69V176.552z"/>
</g>
<rect x="176.552" style="fill:#E7ECED;" width="158.897" height="176.552"/>
<g>
	<path style="fill:#28384C;" d="M176.552,512H17.69C7.918,512,0,504.082,0,494.31V335.448h176.552V512z"/>
	<path style="fill:#28384C;" d="M494.31,512H335.448V335.448H512V494.31C512,504.082,504.082,512,494.31,512z"/>
</g>
<rect x="176.552" y="335.448" style="fill:#E7ECED;" width="158.897" height="176.552"/>
<g>
	<path style="fill:#DD352E;" d="M211.862,476.69c-2.26,0-4.52-0.865-6.241-2.586c-3.452-3.452-3.452-9.031,0-12.482l88.276-88.276
		c3.443-3.452,9.039-3.452,12.482,0c3.452,3.452,3.452,9.031,0,12.482l-88.276,88.276
		C216.382,475.825,214.122,476.69,211.862,476.69z"/>
	<path style="fill:#DD352E;" d="M300.138,476.69c-2.26,0-4.52-0.865-6.241-2.586l-88.276-88.276c-3.452-3.452-3.452-9.031,0-12.482
		c3.443-3.452,9.039-3.452,12.482,0l88.276,88.276c3.452,3.452,3.452,9.031,0,12.482C304.658,475.825,302.398,476.69,300.138,476.69
		z"/>
</g>
<g>
	<rect y="176.552" style="fill:#E7ECED;" width="176.552" height="158.897"/>
	<rect x="335.448" y="176.552" style="fill:#E7ECED;" width="176.552" height="158.897"/>
</g>
<g>
	<path style="fill:#366DB6;" d="M256,308.966c-29.202,0-52.966-23.755-52.966-52.966s23.764-52.966,52.966-52.966
		c29.202,0,52.966,23.755,52.966,52.966S285.202,308.966,256,308.966z M256,220.69c-19.474,0-35.31,15.837-35.31,35.31
		s15.837,35.31,35.31,35.31s35.31-15.837,35.31-35.31S275.474,220.69,256,220.69z"/>
	<path style="fill:#366DB6;" d="M256,141.241c-29.202,0-52.966-23.755-52.966-52.966S226.798,35.31,256,35.31
		c29.202,0,52.966,23.755,52.966,52.966S285.202,141.241,256,141.241z M256,52.966c-19.474,0-35.31,15.837-35.31,35.31
		s15.837,35.31,35.31,35.31s35.31-15.837,35.31-35.31S275.474,52.966,256,52.966z"/>
	<path style="fill:#366DB6;" d="M423.724,308.966c-29.202,0-52.966-23.755-52.966-52.966s23.764-52.966,52.966-52.966
		c29.202,0,52.966,23.755,52.966,52.966S452.926,308.966,423.724,308.966z M423.724,220.69c-19.474,0-35.31,15.837-35.31,35.31
		s15.837,35.31,35.31,35.31c19.474,0,35.31-15.837,35.31-35.31S443.198,220.69,423.724,220.69z"/>
	<path style="fill:#366DB6;" d="M88.276,476.69c-29.202,0-52.966-23.755-52.966-52.966c0-29.21,23.764-52.966,52.966-52.966
		s52.966,23.755,52.966,52.966C141.241,452.935,117.478,476.69,88.276,476.69z M88.276,388.414c-19.474,0-35.31,15.837-35.31,35.31
		c0,19.474,15.837,35.31,35.31,35.31s35.31-15.837,35.31-35.31C123.586,404.25,107.75,388.414,88.276,388.414z"/>
</g>
<g>
	<path style="fill:#DD352E;" d="M379.586,476.69c-2.26,0-4.52-0.865-6.241-2.586c-3.452-3.452-3.452-9.031,0-12.482l88.276-88.276
		c3.443-3.452,9.039-3.452,12.482,0c3.452,3.452,3.452,9.031,0,12.482l-88.276,88.276
		C384.106,475.825,381.846,476.69,379.586,476.69z"/>
	<path style="fill:#DD352E;" d="M467.862,476.69c-2.26,0-4.52-0.865-6.241-2.586l-88.276-88.276c-3.452-3.452-3.452-9.031,0-12.482
		c3.443-3.452,9.039-3.452,12.482,0l88.276,88.276c3.452,3.452,3.452,9.031,0,12.482C472.382,475.825,470.122,476.69,467.862,476.69
		z"/>
	<path style="fill:#DD352E;" d="M44.138,141.241c-2.26,0-4.52-0.865-6.241-2.586c-3.452-3.452-3.452-9.031,0-12.482l88.276-88.276
		c3.443-3.452,9.039-3.452,12.482,0c3.452,3.452,3.452,9.031,0,12.482l-88.276,88.276C48.658,140.376,46.398,141.241,44.138,141.241
		z"/>
	<path style="fill:#DD352E;" d="M132.414,141.241c-2.26,0-4.52-0.865-6.241-2.586L37.897,50.379c-3.452-3.452-3.452-9.031,0-12.482
		c3.443-3.452,9.039-3.452,12.482,0l88.276,88.276c3.452,3.452,3.452,9.031,0,12.482
		C136.934,140.376,134.674,141.241,132.414,141.241z"/>
	<path style="fill:#DD352E;" d="M379.586,141.241c-2.26,0-4.52-0.865-6.241-2.586c-3.452-3.452-3.452-9.031,0-12.482l88.276-88.276
		c3.443-3.452,9.039-3.452,12.482,0c3.452,3.452,3.452,9.031,0,12.482l-88.276,88.276
		C384.106,140.376,381.846,141.241,379.586,141.241z"/>
	<path style="fill:#DD352E;" d="M467.862,141.241c-2.26,0-4.52-0.865-6.241-2.586l-88.276-88.276c-3.452-3.452-3.452-9.031,0-12.482
		c3.443-3.452,9.039-3.452,12.482,0l88.276,88.276c3.452,3.452,3.452,9.031,0,12.482
		C472.382,140.376,470.122,141.241,467.862,141.241z"/>
	<path style="fill:#DD352E;" d="M44.138,308.966c-2.26,0-4.52-0.865-6.241-2.586c-3.452-3.452-3.452-9.031,0-12.482l88.276-88.276
		c3.443-3.452,9.039-3.452,12.482,0c3.452,3.452,3.452,9.031,0,12.482l-88.276,88.276C48.658,308.1,46.398,308.966,44.138,308.966z"
		/>
	<path style="fill:#DD352E;" d="M132.414,308.966c-2.26,0-4.52-0.865-6.241-2.586l-88.276-88.276c-3.452-3.452-3.452-9.031,0-12.482
		c3.443-3.452,9.039-3.452,12.482,0l88.276,88.276c3.452,3.452,3.452,9.031,0,12.482C136.934,308.1,134.674,308.966,132.414,308.966
		z"/>
</g>
<g>
</g>
<g>
</g>
<g>
</g>
<g>
</g>
<g>
</g>
<g>
</g>
<g>
</g>
<g>
</g>
<g>
</g>
<g>
</g>
<g>
</g>
<g>
</g>
<g>
</g>
<g>
</g>
<g>
</g>
</svg>
